<svg width="200" height="48" viewBox="0 0 200 48" fill="none" xmlns="http://www.w3.org/2000/svg">
<path d="M65.0242 35.1702H62.4448L61.1439 31.6711H55.8056L54.5046 35.1702H51.9476L57.4205 21.2637H59.5738L65.0242 35.1702ZM60.3588 29.5627L58.4972 24.2917L56.613 29.5403H60.3364L60.3588 29.5627ZM74.7812 30.1907C74.7963 30.8803 74.6724 31.5659 74.4168 32.2066C74.1612 32.8473 73.7792 33.4299 73.2936 33.9197C72.8079 34.4096 72.2286 34.7966 71.5901 35.0576C70.9517 35.3187 70.2672 35.4485 69.5775 35.4393C67.0654 35.4393 65.4504 34.2281 64.6878 31.8057H66.9308C67.3794 32.9272 68.2766 33.4655 69.5775 33.4655C70.3177 33.4655 70.9457 33.2412 71.484 32.7926C72.0223 32.344 72.3812 31.7608 72.5382 31.0206H68.8822V29.2935H72.5382C72.4127 28.6304 72.0592 28.032 71.539 27.6019C71.0188 27.1718 70.3646 26.9371 69.6896 26.9384C68.3439 26.9384 67.4467 27.4767 66.9532 28.5085H64.7102C64.9798 27.4406 65.6133 26.5001 66.5018 25.8491C67.3903 25.1981 68.478 24.8774 69.5775 24.9422C71.0579 24.9422 72.2691 25.458 73.2784 26.4674C74.2878 27.4767 74.7812 28.7104 74.7812 30.2132V30.1907ZM86.2653 30.258C86.2876 31.6183 85.7716 32.9324 84.8298 33.9141C84.3772 34.4139 83.8226 34.8107 83.2035 35.0777C82.5843 35.3447 81.9151 35.4757 81.241 35.4617C79.9401 35.4617 78.8186 34.9907 77.899 34.0711V39.4543H75.813V25.2113H77.9214V26.445C78.8186 25.4805 79.8952 24.987 81.1961 24.987C82.6765 24.987 83.8877 25.5029 84.8522 26.5122C85.8167 27.5216 86.2877 28.7552 86.2877 30.258H86.2653ZM84.112 30.258C84.112 29.3384 83.8204 28.5758 83.2148 27.9253C82.6092 27.2749 81.869 26.9608 80.9718 26.9608C80.1195 26.9608 79.4018 27.2749 78.7962 27.9253C78.2256 28.5462 77.9089 29.3587 77.9089 30.202C77.9089 31.0452 78.2256 31.8577 78.7962 32.4786C79.3793 33.1515 80.1195 33.4655 80.9718 33.4655C81.8466 33.4655 82.5868 33.1515 83.2148 32.501C83.8204 31.8505 84.112 31.1104 84.112 30.258ZM97.3905 30.101C97.4086 30.8024 97.2853 31.5002 97.0279 32.1528C96.7706 32.8055 96.3845 33.3997 95.8926 33.8999C95.4007 34.4002 94.8131 34.7963 94.1649 35.0646C93.5166 35.3329 92.821 35.468 92.1195 35.4617C90.6391 35.4617 89.383 34.9459 88.3737 33.9365C87.3419 32.9047 86.8485 31.6711 86.8485 30.1907C86.8485 28.7328 87.3643 27.4992 88.3737 26.445C89.4055 25.4132 90.6167 24.8749 92.0746 24.8749C92.7711 24.8666 93.4621 24.9995 94.1059 25.2655C94.7496 25.5314 95.3329 25.925 95.8204 26.4225C96.8746 27.4319 97.3905 28.6655 97.3905 30.101ZM95.1924 30.2132C95.1924 29.2711 94.9008 28.5085 94.3176 27.8805C94.0345 27.57 93.6873 27.3249 93.2999 27.1623C92.9126 26.9996 92.4945 26.9232 92.0746 26.9384C91.1998 26.9384 90.4821 27.2524 89.8989 27.9029C89.3291 28.5352 89.024 29.3623 89.0466 30.2132C89.0466 31.1104 89.3157 31.873 89.8989 32.501C90.4597 33.1066 91.1998 33.3982 92.097 33.3982C92.9942 33.3982 93.7344 33.1066 94.3176 32.501C94.8783 31.873 95.1699 31.1104 95.1699 30.2132H95.1924ZM108.852 21.2861L103.514 28.1721L108.807 35.1926H105.891L101.114 28.4636V35.1926H98.6914V21.2861H101.091V27.9926L106.071 21.2637H108.83L108.852 21.2861ZM118.721 30.101C118.739 30.8024 118.616 31.5002 118.359 32.1528C118.101 32.8055 117.715 33.3997 117.223 33.8999C116.731 34.4002 116.144 34.7963 115.496 35.0646C114.847 35.3329 114.152 35.468 113.45 35.4617C111.97 35.4617 110.714 34.9459 109.704 33.9365C108.673 32.9047 108.179 31.6711 108.179 30.1907C108.179 28.7328 108.695 27.4992 109.704 26.445C110.736 25.4132 111.947 24.8973 113.405 24.8973C114.863 24.8973 116.097 25.4132 117.151 26.4225C118.183 27.4319 118.721 28.6655 118.721 30.101ZM116.523 30.2132C116.523 29.2711 116.232 28.5085 115.648 27.8805C115.368 27.5729 115.024 27.3296 114.641 27.167C114.258 27.0044 113.844 26.9265 113.428 26.9384C112.531 26.9384 111.813 27.2524 111.23 27.9029C110.662 28.5364 110.357 29.3627 110.377 30.2132C110.377 31.1104 110.669 31.873 111.23 32.501C111.813 33.1066 112.531 33.3982 113.45 33.3982C114.37 33.3982 115.088 33.1066 115.648 32.501C116.232 31.873 116.523 31.1104 116.523 30.2132ZM131.103 35.1926H129.017V28.4636L126.235 35.1926H124.62L121.839 28.4636V35.1926H119.753V25.2337H122.534L125.45 32.5907L128.321 25.2337H131.103V35.1926ZM141.017 35.1926H138.886V27.073H134.803V35.1926H132.65V25.2113H140.994V35.215L141.017 35.1926ZM152.59 30.101C152.608 30.8024 152.485 31.5002 152.228 32.1528C151.97 32.8055 151.584 33.3997 151.092 33.8999C150.6 34.4002 150.013 34.7963 149.365 35.0646C148.716 35.3329 148.021 35.468 147.319 35.4617C145.839 35.4617 144.583 34.9459 143.573 33.9365C142.542 32.9272 142.048 31.6711 142.048 30.1907C142.048 28.7328 142.564 27.4992 143.573 26.445C144.605 25.4132 145.816 24.8973 147.274 24.8973C148.732 24.8973 149.966 25.4132 151.02 26.4225C152.074 27.4319 152.59 28.6655 152.59 30.101ZM150.392 30.2132C150.392 29.2711 150.101 28.5085 149.517 27.8805C149.234 27.57 148.887 27.3249 148.5 27.1623C148.112 26.9996 147.694 26.9232 147.274 26.9384C146.4 26.9384 145.682 27.2524 145.099 27.9029C144.531 28.5364 144.226 29.3627 144.246 30.2132C144.246 31.1104 144.516 31.8954 145.099 32.501C145.384 32.7992 145.73 33.0334 146.113 33.1881C146.495 33.3428 146.907 33.4144 147.319 33.3982C148.216 33.3982 148.957 33.1066 149.517 32.501C150.101 31.873 150.37 31.1104 150.37 30.2132H150.392ZM161.45 32.3664C161.45 33.3533 160.979 34.116 160.015 34.6991C159.17 35.211 158.198 35.4752 157.211 35.4617C156.209 35.483 155.227 35.1844 154.407 34.6094C153.994 34.3333 153.655 33.9597 153.42 33.5216C153.185 33.0835 153.062 32.5943 153.061 32.0973H155.259C155.372 33.0842 156.067 33.5776 157.345 33.5776C157.839 33.5776 158.265 33.4879 158.601 33.3085C159.073 33.0842 159.297 32.7702 159.297 32.3216C159.297 31.6487 158.96 31.2001 158.243 31.0206C157.929 30.9309 157.301 30.8861 156.403 30.8861V29.2711C157.301 29.2711 157.884 29.2487 158.108 29.1814C158.714 29.0244 159.028 28.5982 159.028 27.9478C159.028 27.1179 158.467 26.7141 157.323 26.7141C156.134 26.7141 155.529 27.1627 155.529 28.015H153.443C153.443 27.0057 153.846 26.2207 154.676 25.6599C155.394 25.144 156.269 24.8973 157.323 24.8973C158.355 24.8973 159.23 25.1216 159.925 25.5702C160.732 26.1085 161.136 26.8487 161.136 27.8132C161.136 28.7777 160.598 29.4954 159.566 29.8992C160.8 30.3253 161.45 31.1328 161.45 32.3664ZM171.454 35.1926H169.301V28.4188L164.523 35.1926H162.572V25.2337H164.702V31.9178L169.502 25.2337H171.476V35.1926H171.454ZM179.259 27.1179H176.747V35.1926H174.616V27.1179H172.127V25.2337H179.259V27.1179Z" fill="#093158"/>
<path d="M49.2112 32.3667C49.0542 32.1424 48.8299 31.9181 48.5608 31.6938L20.4338 10.7219C17.4955 9.264 10.6768 9.30886 12.0226 10.7892L27.9253 32.3667H49.2112ZM27.6786 34.8789L23.9552 42.819H33.5103L27.6786 34.8789ZM35.1477 42.191L48.5159 34.5648C48.7851 34.363 49.0094 34.1835 49.1664 33.9817H29.159L35.1477 42.191Z" fill="#7B7979"/>
<path d="M21.6898 47.7757L22.3179 47.8206C25.9739 48.157 28.3739 45.9813 31.8057 44.1645H23.3721L21.6898 47.7533V47.7757ZM20.1197 47.5514C14.4939 46.6574 9.37341 43.7805 5.68353 39.4407C1.99364 35.1008 -0.0222269 29.5843 0.00018488 23.8879C-0.00573647 20.7474 0.608841 17.6366 1.80862 14.7343C3.0084 11.832 4.76974 9.19525 6.99148 6.97559C9.21322 4.75593 11.8516 2.99707 14.755 1.80001C17.6585 0.602958 20.7699 -0.00869965 23.9104 0.000169179C27.0547 -0.0116753 30.1703 0.598532 33.0778 1.79566C35.9853 2.99279 38.6274 4.75319 40.8518 6.97552C43.0762 9.19785 44.8391 11.8382 46.0389 14.7446C47.2388 17.651 47.8519 20.766 47.843 23.9104L44.0972 20.815C43.3661 15.9886 40.9257 11.5853 37.2205 8.40706C33.5154 5.22885 28.7919 3.48717 23.9104 3.49922C21.2283 3.49331 18.5714 4.01722 16.0924 5.04088C13.6133 6.06454 11.3609 7.56779 9.46434 9.46432C7.56781 11.3608 6.06456 13.6133 5.0409 16.0924C4.01724 18.5714 3.49332 21.2283 3.49924 23.9104C3.5238 28.9187 5.3769 33.7455 8.71017 37.4836C12.0434 41.2216 16.6273 43.6134 21.6001 44.2094L20.0973 47.5514H20.1197Z" fill="#0B4476"/>
</svg>
